<svg xmlns="http://www.w3.org/2000/svg" data-name="Layer 1" viewBox="0 0 24 24"><path d="M12,17a.5.5,0,0,0-.5.5v2a.5.5,0,0,0,1,0v-2A.5.5,0,0,0,12,17ZM8.26,17a.5.5,0,0,0-.58.41l-.35,2a.5.5,0,0,0,.41.58h.09a.5.5,0,0,0,.49-.41l.35-2A.5.5,0,0,0,8.26,17Zm-3.75.07a.5.5,0,0,0-.64.3l-.68,1.88a.5.5,0,1,0,.94.34l.68-1.88A.5.5,0,0,0,4.51,17.09ZM13.5,8h-3a.5.5,0,0,0,0,1h3a.5.5,0,0,0,0-1Zm9.86-3.16A2.55,2.55,0,0,0,21.46,4H2.54a2.55,2.55,0,0,0-1.89.84A2.48,2.48,0,0,0,0,6.75l.61,6A2.52,2.52,0,0,0,3.15,15h.62l.15,0,.14,0H20.85a2.52,2.52,0,0,0,2.52-2.25l.61-6A2.48,2.48,0,0,0,23.36,4.84ZM4.39,14a1.15,1.15,0,0,1,1.15-1H18.46a1.14,1.14,0,0,1,1.14,1Zm18-1.35A1.52,1.52,0,0,1,20.85,14h-.23a2.15,2.15,0,0,0-2.15-2H5.54a2.16,2.16,0,0,0-1.68.79A2.12,2.12,0,0,0,3.39,14H3.15a1.52,1.52,0,0,1-1.53-1.35L1.45,11h21.1ZM22.65,10H1.35L1,6.65a1.46,1.46,0,0,1,.38-1.14A1.55,1.55,0,0,1,2.54,5H21.46a1.55,1.55,0,0,1,1.15.51A1.46,1.46,0,0,1,23,6.65Zm-6.91,7a.5.5,0,0,0-.41.58l.35,2a.5.5,0,0,0,.49.41h.09a.5.5,0,0,0,.41-.58l-.35-2A.5.5,0,0,0,15.74,17Zm4.39.37a.5.5,0,1,0-.94.34l.68,1.88a.5.5,0,0,0,.94-.34Z"/></svg>