<svg xmlns="http://www.w3.org/2000/svg" viewBox="0 0 20 20"><path d="M5.93,13.02916v3.83a.50146.50146,0,0,0,.5.5h7.14a.50146.50146,0,0,0,.5-.5v-3.83l1.15-1.56H4.78Zm2.58,1.68a1.49,1.49,0,0,1,2.98,0v1.65H8.51Zm6.96-6.88v2.64H4.53v-2.64a.49514.49514,0,0,1,.5-.5H7.02a.49518.49518,0,0,1,.5.5v.67h.99v-.67a.49514.49514,0,0,1,.5-.5H9.5v-4.11a.49514.49514,0,0,1,.5-.5.51929.51929,0,0,1,.35.13c.94-.23,2.37-.44,2.81.36a1.17258,1.17258,0,0,0,.45.15,1.4985,1.4985,0,0,1,1.37,1.98.49936.49936,0,0,1-.4.42h-.09a.48376.48376,0,0,1-.43-.25,1.86453,1.86453,0,0,0-.71-.05c-.55.01-1.31.03-1.66-.59a3.13378,3.13378,0,0,0-1.19.51v1.95H11a.49514.49514,0,0,1,.5.5v.67h.98v-.67a.49518.49518,0,0,1,.5-.5h1.99A.49514.49514,0,0,1,15.47,7.82915Z"/></svg>