<svg xmlns="http://www.w3.org/2000/svg" width="64" height="64" enable-background="new 0 0 64 64" viewBox="0 0 64 64"><path fill="#010101" d="M58.21,5.797c-3.061-2.57-6.819-3.619-10.584-2.963L8.219,9.738L1.34,6.896
		c-0.3-0.125-0.641-0.092-0.909,0.09C0.162,7.166,0,7.469,0,7.793v22.135c0,0.324,0.162,0.625,0.431,0.807
		c0.162,0.107,0.35,0.162,0.539,0.162c0.125,0,0.251-0.023,0.37-0.072l6.879-2.842l21.703,3.801v3.484
		c0,1.508,0.922,2.801,2.231,3.352v6.66h-1.263c-0.535,0-0.969,0.434-0.969,0.971c0,0.535,0.434,0.969,0.969,0.969h1.263v6.826
		c0,4.031,3.28,7.313,7.312,7.313s7.312-3.281,7.312-7.313V38.617c1.31-0.551,2.232-1.844,2.232-3.35v-0.227
		c0.271,0.018,0.542,0.035,0.813,0.035c3.008,0,5.926-1.086,8.389-3.154C61.89,28.83,64,24.07,64,18.859S61.89,8.889,58.21,5.797z
		 M1.939,9.242l5.237,2.164v14.908l-5.237,2.164V9.242z M44.837,54.045c0,2.963-2.41,5.373-5.372,5.373s-5.372-2.41-5.372-5.373
		V38.9h10.744V54.045z M45.369,36.961H33.553c-0.933,0-1.692-0.76-1.692-1.693v-3.145l15.209,2.664v0.48
		C47.069,36.201,46.307,36.961,45.369,36.961z M56.963,30.438c-2.614,2.193-5.812,3.098-9.002,2.537L9.116,26.17V11.549
		l38.845-6.805c3.187-0.561,6.388,0.342,9.002,2.537c3.239,2.723,5.098,6.941,5.098,11.578S60.202,27.715,56.963,30.438z"/><path fill="#010101" d="M45.436,8.654c-5.627,0-10.205,4.578-10.205,10.205s4.578,10.205,10.205,10.205s10.205-4.578,10.205-10.205
		S51.063,8.654,45.436,8.654z M45.436,27.125c-4.558,0-8.266-3.707-8.266-8.266s3.708-8.266,8.266-8.266s8.267,3.707,8.267,8.266
		S49.993,27.125,45.436,27.125z"/><path fill="#010101" d="M49.989 14.426h-9.107c-.536 0-.97.436-.97.971s.434.969.97.969h9.107c.536 0 .97-.434.97-.969S50.525 14.426 49.989 14.426zM49.989 17.891h-9.107c-.536 0-.97.434-.97.969s.434.971.97.971h9.107c.536 0 .97-.436.97-.971S50.525 17.891 49.989 17.891zM49.989 21.354h-9.107c-.536 0-.97.434-.97.971 0 .535.434.969.97.969h9.107c.536 0 .97-.434.97-.969C50.959 21.787 50.525 21.354 49.989 21.354z"/></svg>