<svg xmlns="http://www.w3.org/2000/svg" width="48" height="48" viewBox="0 0 48 48"><path d="M31 24a1 1 0 0 1-1-1V3a1 1 0 0 1 1-1c6.065 0 11 4.935 11 11s-4.935 11-11 11zm1-19.944v17.889c4.494-.499 8-4.319 8-8.944s-3.506-8.446-8-8.945z"/><path d="M31 4a1 1 0 01-1-1V1a1 1 0 112 0v2a1 1 0 01-1 1zM21 28h-4a1 1 0 110-2h4a1 1 0 110 2zM27 20H9a1 1 0 110-2h18a1 1 0 110 2zM12.001 48a1 1 0 01-.99-1.152l2-13.089a1 1 0 011.978.303l-2 13.089a1 1 0 01-.988.849zM25 48c-2.206 0-4-1.794-4-4s1.794-4 4-4 4 1.794 4 4-1.794 4-4 4zm0-6c-1.103 0-2 .897-2 2s.897 2 2 2 2-.897 2-2-.897-2-2-2z"/><path d="M24.298 42.083c-.533 0-.976-.421-.999-.958L23 33.953a1 1 0 0 1 .958-1.041c.561-.037 1.017.406 1.041.957l.299 7.172a1 1 0 0 1-.958 1.041l-.042.001z"/><path d="M13.231 38h10.988v2H13.231zM19 36c-7.168 0-13-5.832-13-13a1 1 0 011-1h24a1 1 0 011 1c0 7.168-5.832 13-13 13zM8.045 24C8.552 29.599 13.271 34 19 34s10.448-4.401 10.955-10H8.045z"/></svg>