<svg id="SvgjsSvg1056" width="288" height="288" xmlns="http://www.w3.org/2000/svg" version="1.1" xmlns:xlink="http://www.w3.org/1999/xlink" xmlns:svgjs="http://svgjs.com/svgjs"><defs id="SvgjsDefs1057"></defs><g id="SvgjsG1058"><svg xmlns="http://www.w3.org/2000/svg" width="288" height="288" viewBox="0 0 16 16"><g transform="translate(-378.591 -390.194)" fill="#000000" class="color000 svgShape"><path fill="#232323" d="m 383.62277,392.69388 c -2.11397,0 -3.53166,1.71304 -3.53166,3.82609 0,2.39781 3.34924,5.26083 6.22001,7.17393 2.87076,-1.9131 6.18126,-4.82232 6.22,-7.17393 0.0348,-2.11277 -1.33311,-3.82609 -3.44708,-3.82609 -0.90187,0 -1.816,0.47826 -2.77292,1.43478 -0.95693,-0.95652 -1.78648,-1.43478 -2.68835,-1.43478 z" class="colorc2e4f8 svgShape"></path><path fill="none" stroke="#ffffff" d="m 383.62277,392.69388 c -2.11397,0 -3.53166,1.71304 -3.53166,3.82609 0,2.39781 3.34924,5.26083 6.22001,7.17393 2.87076,-1.9131 6.18126,-4.82232 6.22,-7.17393 0.0348,-2.11277 -1.33311,-3.82609 -3.44708,-3.82609 -0.90187,0 -1.816,0.47826 -2.77292,1.43478 -0.95693,-0.95652 -1.78648,-1.43478 -2.68835,-1.43478 z" class="colorStroke249fe6 svgStroke"></path></g></svg></g></svg>