<svg xmlns="http://www.w3.org/2000/svg" width="48" height="48" data-name="Layer 2" viewBox="0 0 48 48"><path d="M14.56,20.23a1.88,1.88,0,0,1,1.89,1.88v6.61h3.78V22.11a1.88,1.88,0,0,1,1.88-1.88h3.78a1.88,1.88,0,0,1,1.88,1.88v6.61h3.78V22.11a1.88,1.88,0,0,1,1.89-1.88h3.77a1.89,1.89,0,0,1,1.89,1.88v6.61H40a.95.95,0,1,1,0,1.89H39.1V41a1.89,1.89,0,0,1-1.89,1.89H33.44A1.88,1.88,0,0,1,31.55,41V30.61H27.77V41a1.88,1.88,0,0,1-1.88,1.89H22.11A1.88,1.88,0,0,1,20.23,41V30.61H16.45V41a1.88,1.88,0,0,1-1.89,1.89H10.79A1.89,1.89,0,0,1,8.9,41V30.61H8a1,1,0,0,1-1-.95,1,1,0,0,1,1-.94H8.9V22.11a1.89,1.89,0,0,1,1.89-1.88Zm-.94,1.88H11.73a1,1,0,0,0-.94.95V40a.94.94,0,0,0,.94.94h1.89a.94.94,0,0,0,.94-.94v-17A1,1,0,0,0,13.62,22.11Zm11.32,0H23.06a1,1,0,0,0-.95.95V40a1,1,0,0,0,.95.94h1.88a1,1,0,0,0,.95-.94v-17A1,1,0,0,0,24.94,22.11Zm11.33,0H34.38a1,1,0,0,0-.94.95V40a.94.94,0,0,0,.94.94h1.89a.94.94,0,0,0,.94-.94v-17A1,1,0,0,0,36.27,22.11ZM17,5.59a.86.86,0,0,1-.35,1.16,2,2,0,0,0,0,3.68,3.78,3.78,0,0,1,2.17,3.34,3.71,3.71,0,0,1-2,3.23l-.21.12a.86.86,0,1,1-.92-1.46l0,0,0,0a2.1,2.1,0,0,0,1.29-1.85,2.08,2.08,0,0,0-1.27-1.83,3.7,3.7,0,0,1-2.19-3.36,3.64,3.64,0,0,1,2-3.23l.21-.12A.86.86,0,0,1,17,5.59Zm13.84,0a.86.86,0,0,1-.35,1.16,2,2,0,0,0,0,3.68,3.78,3.78,0,0,1,2.17,3.34,3.74,3.74,0,0,1-2,3.23l-.21.12a.86.86,0,1,1-.92-1.46l0,0,0,0a2.12,2.12,0,0,0,1.29-1.85,2.1,2.1,0,0,0-1.27-1.83,3.66,3.66,0,0,1-.21-6.6l.21-.11a.86.86,0,0,1,1.16.36Zm-6.92,0a.86.86,0,0,1-.35,1.16,2,2,0,0,0,0,3.68,3.78,3.78,0,0,1,2.17,3.34,3.71,3.71,0,0,1-2,3.23l-.21.12a.86.86,0,0,1-.89-1.48l0,0A2.1,2.1,0,0,0,24,13.77a2.08,2.08,0,0,0-1.27-1.83,3.71,3.71,0,0,1-2.19-3.36,3.66,3.66,0,0,1,2-3.24l.21-.11a.86.86,0,0,1,1.16.36Z"/></svg>