<svg xmlns="http://www.w3.org/2000/svg" viewBox="0 0 64 64"><path fill="none" stroke="#000" stroke-linecap="round" stroke-linejoin="round" stroke-width="3" d="M50.88,16.75h1a7.42,7.42,0,0,1,7.42,7.42V53.38a5.89,5.89,0,0,1-5.89,5.88H10.63a5.89,5.89,0,0,1-5.89-5.88V24.17a7.42,7.42,0,0,1,7.42-7.42H40.81"/><line x1="40.81" x2="50.88" y1="19.13" y2="19.13" fill="none" stroke="#000" stroke-linecap="round" stroke-linejoin="round" stroke-width="3"/><path fill="none" stroke="#000" stroke-linecap="round" stroke-linejoin="round" stroke-width="3" d="M10.05 30.52c4.72 0 4.72 3 9.44 3s4.72-3 9.43-3 4.72 3 9.44 3 4.72-3 9.44-3M15.43 39.35c4.72 0 4.72 3 9.43 3s4.72-3 9.44-3 4.72 3 9.44 3 4.72-3 9.44-3M10.05 49.39c4.72 0 4.72 3 9.44 3s4.72-3 9.43-3 4.72 3 9.44 3 4.72-3 9.44-3"/><line x1="40.81" x2="40.81" y1="10.74" y2="27.38" fill="none" stroke="#000" stroke-linecap="round" stroke-linejoin="round" stroke-width="3"/><line x1="50.88" x2="50.88" y1="10.74" y2="27.38" fill="none" stroke="#000" stroke-linecap="round" stroke-linejoin="round" stroke-width="3"/><line x1="40.81" x2="50.88" y1="25.63" y2="25.63" fill="none" stroke="#000" stroke-linecap="round" stroke-linejoin="round" stroke-width="3"/><line x1="40.81" x2="50.88" y1="13.22" y2="13.22" fill="none" stroke="#000" stroke-linecap="round" stroke-linejoin="round" stroke-width="3"/></svg>