<svg xmlns="http://www.w3.org/2000/svg" data-name="Layer 1" viewBox="0 0 32 32"><path d="M29.96,9.8a4.159,4.159,0,0,0-2.16-.6,4.235,4.235,0,0,0-3.1,1.366V9a9,9,0,1,0-18,0V25H3.5a3.479,3.479,0,0,0-2.476,1.023A3.5,3.5,0,0,0,3.5,32H26.7a1,1,0,0,0,1-1V26.173l4.05-11.361A4.183,4.183,0,0,0,29.96,9.8ZM2,28.5A1.494,1.494,0,0,1,3.5,27H6.7v3H3.5A1.5,1.5,0,0,1,2,28.5ZM25.7,30H8.7V27h17Zm4.168-15.866L26,25H8.7V9a7,7,0,0,1,14,0v5a1,1,0,0,0,1.858.515l1.349-2.25a2.24,2.24,0,0,1,3.022-.755A2.185,2.185,0,0,1,29.868,14.134Z"/></svg>