<svg xmlns="http://www.w3.org/2000/svg" viewBox="0 0 32 32"><g data-name="Layer 2"><path d="M27.44,17H4.56a2.58,2.58,0,0,1-2.31-3.73l5-10.09A3.91,3.91,0,0,1,10.81,1H21.19A3.91,3.91,0,0,1,24.7,3.17l5,10.09A2.58,2.58,0,0,1,27.44,17ZM10.81,3A1.92,1.92,0,0,0,9.08,4.07L4,14.16a.58.58,0,0,0,.52.84H27.44a.58.58,0,0,0,.52-.84l-5-10.09A1.92,1.92,0,0,0,21.19,3Z"/><rect width="2" height="14.25" x="15" y="15.75"/><rect width="10" height="2" x="11" y="29" rx="1" ry="1"/><rect width="2" height="3" x="9.13" y="16" rx="1" ry="1"/></g></svg>