<svg xmlns="http://www.w3.org/2000/svg" data-name="Layer 1" viewBox="0 0 64 64"><path fill="none" stroke="#222" stroke-miterlimit="10" stroke-width="3" d="M38.9,49l1.28,9.46a1,1,0,0,1-1,1.15H24.81a1,1,0,0,1-1-1.15L25.1,49Z"/><rect width="61" height="44.67" x="1.5" y="4.36" fill="none" stroke="#222" stroke-miterlimit="10" stroke-width="3" rx="4"/><path fill="none" stroke="#222" stroke-miterlimit="10" stroke-width="3" d="M1.5,38.53h61a0,0,0,0,1,0,0V45a4,4,0,0,1-4,4H5.5a4,4,0,0,1-4-4v-6.5A0,0,0,0,1,1.5,38.53Z"/><circle cx="32" cy="43.78" r="1.79" fill="#222"/></svg>