<svg xmlns="http://www.w3.org/2000/svg" viewBox="0 0 100 100"><path d="M75.24,30.09l.28,0A1.5,1.5,0,0,0,77,28.89L79.5,15.52a1.5,1.5,0,0,0-1.2-1.75l-2.94-.55.39-2.07A6.44,6.44,0,0,0,63.1,8.78l-.59,3.13a1.9,1.9,0,0,0-.14.4,1.89,1.89,0,0,0,0,.41l-3.79,20.2h-4V12.4a1.32,1.32,0,0,0-.06-.39l0-.09a1.26,1.26,0,0,0-.17-.35h0L49.36,4.24a1.56,1.56,0,0,0-2.49,0l-4.93,7.32h0a1.26,1.26,0,0,0-.17.35l0,.09a1.32,1.32,0,0,0-.06.39V32.92h-3.9l-2.44-14,.1,0a1.5,1.5,0,0,0-.51-3l-.1,0-.3-1.71.1,0a1.5,1.5,0,0,0-.51-3l-.1,0-.36-2.07A6.43,6.43,0,0,0,21,11.42l.36,2.07-.1,0a1.5,1.5,0,0,0,.26,3l.26,0,.09,0,.3,1.71-.1,0a1.5,1.5,0,0,0,.26,3l.26,0h.09l2.06,11.8H21a1.49,1.49,0,0,0-1.5,1.6l3.34,53.41a9.13,9.13,0,0,0,9.1,8.54H65a9.12,9.12,0,0,0,9.09-8.54l3.34-53.41a1.52,1.52,0,0,0-.4-1.13,1.5,1.5,0,0,0-1.09-.47H71.67l3.14-16.75,1.46.27L74,28.34A1.5,1.5,0,0,0,75.24,30.09ZM66.05,9.33A3.43,3.43,0,0,1,72.8,10.6l-.39,2.06L65.66,11.4ZM65,93.47H31.92a6.12,6.12,0,0,1-6.1-5.73L22.57,35.92H74.33L71.09,87.74A6.13,6.13,0,0,1,65,93.47ZM48.12,7.76l2.11,3.14H46ZM44.68,13.9h6.87v19H44.68Zm-20.74-3a3.43,3.43,0,0,1,2.79-4,3,3,0,0,1,.59-.05,3.45,3.45,0,0,1,3.39,2.85l.35,2.07L24.3,13Zm.87,5,6.77-1.18.3,1.71-6.77,1.18Zm.81,4.66,6.77-1.17,2.34,13.49h-7Zm43,12.32h-7l3.48-18.57,6.75,1.26Z" data-name="Layer 2"/></svg>